<?xml version="1.0" encoding="UTF-8" standalone="no"?>
<!DOCTYPE svg PUBLIC "-//W3C//DTD SVG 1.1//EN" "http://www.w3.org/Graphics/SVG/1.1/DTD/svg11.dtd">
<svg width="100%" height="100%" viewBox="0 0 24 24" version="1.1" xmlns="http://www.w3.org/2000/svg" xmlns:xlink="http://www.w3.org/1999/xlink" xml:space="preserve" xmlns:serif="http://www.serif.com/" style="fill-rule:evenodd;clip-rule:evenodd;stroke-linejoin:round;stroke-miterlimit:2;">
    <path d="M12,0C18.623,0 24,5.377 24,12C24,18.623 18.623,24 12,24C5.377,24 0,18.623 0,12C0,5.377 5.377,0 12,0ZM12,2C6.481,2 2,6.481 2,12C2,17.519 6.481,22 12,22C17.519,22 22,17.519 22,12C22,6.481 17.519,2 12,2Z"/>
    <path d="M4.474,19.526L8.194,22.284L12,23.081L17.756,21.68L21.887,17.188L23.07,11.459L22.071,6.842L19.504,4.496L4.474,19.526Z"/>
</svg>
